<svg width="23" height="23" viewBox="0 0 23 23" fill="none" xmlns="http://www.w3.org/2000/svg">
<path id="psychiatry" d="M10.2222 23V12.8097C8.85926 12.8097 7.54954 12.5488 6.29306 12.0271C5.03657 11.5053 3.92917 10.7653 2.97083 9.80694C2.0125 8.84861 1.27778 7.7412 0.766667 6.48472C0.255556 5.22824 0 3.91852 0 2.55556V0H2.55556C3.89722 0 5.1963 0.26088 6.45278 0.782639C7.70926 1.3044 8.81667 2.04444 9.775 3.00278C10.4352 3.66296 10.9836 4.38704 11.4201 5.175C11.8567 5.96296 12.1921 6.80417 12.4264 7.69861C12.5329 7.54954 12.65 7.40579 12.7778 7.26736C12.9056 7.12894 13.044 6.98519 13.1931 6.83611C14.1514 5.87778 15.2588 5.13773 16.5153 4.61597C17.7718 4.09421 19.0815 3.83333 20.4444 3.83333H23V6.38889C23 7.75185 22.7391 9.06157 22.2174 10.3181C21.6956 11.5745 20.9556 12.6819 19.9972 13.6403C19.0389 14.5986 17.9368 15.3333 16.691 15.8444C15.4451 16.3556 14.1407 16.6111 12.7778 16.6111V23H10.2222ZM10.2222 10.2222C10.2222 9.2 10.0252 8.22569 9.63125 7.29931C9.23727 6.37292 8.67824 5.54769 7.95417 4.82361C7.23009 4.09954 6.40486 3.54051 5.47847 3.14653C4.55208 2.75255 3.57778 2.55556 2.55556 2.55556C2.55556 3.57778 2.74722 4.55741 3.13056 5.49444C3.51389 6.43148 4.06759 7.26204 4.79167 7.98611C5.51574 8.71019 6.3463 9.26389 7.28333 9.64722C8.22037 10.0306 9.2 10.2222 10.2222 10.2222ZM12.7778 14.0556C13.8 14.0556 14.7743 13.8639 15.7007 13.4806C16.6271 13.0972 17.4523 12.5435 18.1764 11.8194C18.9005 11.0954 19.4595 10.2648 19.8535 9.32778C20.2475 8.39074 20.4444 7.41111 20.4444 6.38889C19.4222 6.38889 18.4426 6.58588 17.5056 6.97986C16.5685 7.37384 15.738 7.93287 15.0139 8.65694C14.2898 9.38102 13.7361 10.2063 13.3528 11.1326C12.9694 12.059 12.7778 13.0333 12.7778 14.0556Z" fill="#1C1B1F"/>
</svg>
